<svg xmlns="http://www.w3.org/2000/svg" viewBox="0 0 24.62 19.83"><defs><style>.cls-1{fill-rule:evenodd;}</style></defs><title>Asset 1</title><g id="Layer_2" data-name="Layer 2"><g id="Layer_1-2" data-name="Layer 1"><path class="cls-1" d="M24.5,10.55a1.69,1.69,0,0,1-.33.53l-7.7,8.27a1.45,1.45,0,0,1-2.16,0h0a1.75,1.75,0,0,1,0-2.34l5.07-5.44H1.54A1.6,1.6,0,0,1,0,9.92,1.61,1.61,0,0,1,1.53,8.26H19.37L14.3,2.82a1.75,1.75,0,0,1,0-2.34,1.47,1.47,0,0,1,2.17,0l7.7,8.27a1.73,1.73,0,0,1,.33,1.8Z"/></g></g></svg>