<?xml version="1.0" encoding="utf-8"?>
<!-- Generator: Adobe Illustrator 23.0.5, SVG Export Plug-In . SVG Version: 6.00 Build 0)  -->
<svg version="1.1" id="Layer_1" xmlns="http://www.w3.org/2000/svg" xmlns:xlink="http://www.w3.org/1999/xlink" x="0px" y="0px"
	 viewBox="0 0 40 40" style="enable-background:new 0 0 40 40;" xml:space="preserve">
<style type="text/css">
	.st0{fill-rule:evenodd;clip-rule:evenodd;}
</style>
<path class="st0" d="M20.4,29.6c-0.6,0.2-1.3,0.1-1.8-0.4l-8.1-7.9c-0.6-0.6-0.6-1.6,0.1-2.2c0.7-0.6,1.7-0.6,2.3,0.1l5.3,5.2
	l0.4-17.8c0,0,0,0,0,0c0-0.8,0.8-1.5,1.7-1.5c0.9,0,1.6,0.7,1.6,1.6l-0.4,17.8l5.6-4.9c0.7-0.6,1.7-0.6,2.3,0.1c0,0,0,0,0,0
	c0.6,0.6,0.6,1.6-0.1,2.2l-8.5,7.5C20.8,29.4,20.6,29.5,20.4,29.6L20.4,29.6z"/>
</svg>
